<?xml version="1.0" standalone="no"?>
<!DOCTYPE svg PUBLIC "-//W3C//DTD SVG 20010904//EN"
 "http://www.w3.org/TR/2001/REC-SVG-20010904/DTD/svg10.dtd">
<svg version="1.0" xmlns="http://www.w3.org/2000/svg"
 width="117.000000pt" height="117.000000pt" viewBox="0 0 117.000000 117.000000"
 preserveAspectRatio="xMidYMid meet">
<metadata>
Created by potrace 1.14, written by Peter Selinger 2001-2017
</metadata>
<g transform="translate(0.000000,117.000000) scale(0.100000,-0.100000)"
fill="#000000" stroke="none">
<path d="M452 1018 c-5 -7 -11 -22 -13 -32 -2 -11 -14 -21 -28 -23 -13 -2 -34
-14 -46 -27 -21 -23 -22 -23 -44 -5 -43 35 -105 18 -98 -27 5 -34 34 -65 97
-104 34 -21 58 -40 53 -42 -21 -11 -81 -8 -114 6 -43 18 -54 12 -62 -37 -3
-21 -17 -52 -32 -70 -14 -18 -29 -36 -33 -42 -4 -5 -6 -20 -4 -32 2 -14 -2
-23 -10 -23 -8 0 -9 -3 -3 -8 6 -4 18 -24 27 -45 10 -21 25 -40 33 -43 12 -5
14 -18 9 -63 -4 -31 -11 -61 -15 -67 -6 -7 12 -22 53 -42 65 -34 88 -38 119
-21 15 8 26 7 42 -3 13 -8 37 -12 57 -9 19 2 64 4 100 3 36 -1 94 -2 130 -3
82 -2 144 24 192 80 57 67 72 166 38 256 -9 23 -8 31 1 34 7 2 24 15 38 29 25
25 25 25 5 41 -20 15 -20 16 12 48 27 27 32 37 25 56 -18 50 -112 45 -196 -10
-34 -23 -52 -27 -112 -27 -71 -1 -73 0 -73 24 -2 122 -61 240 -120 240 -10 0
-22 -6 -28 -12z"/>
<path d="M95 600 c3 -5 8 -10 11 -10 2 0 4 5 4 10 0 6 -5 10 -11 10 -5 0 -7
-4 -4 -10z"/>
</g>
</svg>
