<svg width="22" height="18" viewBox="0 0 22 18" fill="none" xmlns="http://www.w3.org/2000/svg">
<path d="M2.963 17.5087C2.38131 17.5087 1.88353 17.3017 1.46965 16.8879C1.05507 16.4733 0.847778 15.9752 0.847778 15.3935V2.70216C0.847778 2.12048 1.05507 1.6227 1.46965 1.20882C1.88353 0.794236 2.38131 0.586945 2.963 0.586945H19.8847C20.4664 0.586945 20.9646 0.794236 21.3791 1.20882C21.793 1.6227 22 2.12048 22 2.70216V15.3935C22 15.9752 21.793 16.4733 21.3791 16.8879C20.9646 17.3017 20.4664 17.5087 19.8847 17.5087H2.963ZM11.4239 10.1054L2.963 4.81738V15.3935H19.8847V4.81738L11.4239 10.1054ZM11.4239 7.9902L19.8847 2.70216H2.963L11.4239 7.9902ZM2.963 4.81738V2.70216V15.3935V4.81738Z" fill="#F5F5F5"/>
</svg>
