<svg width="22" height="23" viewBox="0 0 22 23" fill="none" xmlns="http://www.w3.org/2000/svg">
<path d="M6.69932 0.565186H15.5832C18.9676 0.565186 21.7174 3.39353 21.7174 6.87458V16.0123C21.7174 17.6857 21.0711 19.2905 19.9207 20.4737C18.7703 21.657 17.2101 22.3217 15.5832 22.3217H6.69932C3.31497 22.3217 0.565186 19.4934 0.565186 16.0123V6.87458C0.565186 5.20122 1.21146 3.5964 2.36183 2.41316C3.5122 1.22992 5.07244 0.565186 6.69932 0.565186ZM6.48779 2.74084C5.47801 2.74084 4.50959 3.15343 3.79556 3.88786C3.08154 4.62228 2.6804 5.61838 2.6804 6.65701V16.2299C2.6804 18.3947 4.38315 20.1461 6.48779 20.1461H15.7948C16.8045 20.1461 17.773 19.7335 18.487 18.999C19.201 18.2646 19.6021 17.2685 19.6021 16.2299V6.65701C19.6021 4.49224 17.8994 2.74084 15.7948 2.74084H6.48779ZM16.6937 4.37258C17.0443 4.37258 17.3806 4.51584 17.6285 4.77085C17.8764 5.02586 18.0157 5.37172 18.0157 5.73236C18.0157 6.093 17.8764 6.43886 17.6285 6.69387C17.3806 6.94888 17.0443 7.09214 16.6937 7.09214C16.3431 7.09214 16.0068 6.94888 15.7589 6.69387C15.511 6.43886 15.3717 6.093 15.3717 5.73236C15.3717 5.37172 15.511 5.02586 15.7589 4.77085C16.0068 4.51584 16.3431 4.37258 16.6937 4.37258ZM11.1413 6.00432C12.5437 6.00432 13.8888 6.57736 14.8805 7.5974C15.8722 8.61743 16.4293 10.0009 16.4293 11.4434C16.4293 12.886 15.8722 14.2695 14.8805 15.2895C13.8888 16.3095 12.5437 16.8826 11.1413 16.8826C9.7388 16.8826 8.39376 16.3095 7.40206 15.2895C6.41036 14.2695 5.85323 12.886 5.85323 11.4434C5.85323 10.0009 6.41036 8.61743 7.40206 7.5974C8.39376 6.57736 9.7388 6.00432 11.1413 6.00432ZM11.1413 8.17997C10.2998 8.17997 9.49277 8.5238 8.89775 9.13582C8.30273 9.74784 7.96845 10.5779 7.96845 11.4434C7.96845 12.309 8.30273 13.1391 8.89775 13.7511C9.49277 14.3631 10.2998 14.7069 11.1413 14.7069C11.9828 14.7069 12.7898 14.3631 13.3848 13.7511C13.9798 13.1391 14.3141 12.309 14.3141 11.4434C14.3141 10.5779 13.9798 9.74784 13.3848 9.13582C12.7898 8.5238 11.9828 8.17997 11.1413 8.17997Z" fill="#F5F5F5"/>
</svg>
