<svg width="22" height="18" viewBox="0 0 22 18" fill="none" xmlns="http://www.w3.org/2000/svg">
<path d="M21.1522 2.57774C20.3736 2.92613 19.5344 3.15507 18.6649 3.26456C19.5546 2.737 20.2422 1.90087 20.5657 0.895517C19.7265 1.39322 18.7963 1.7416 17.8155 1.94068C17.0168 1.08464 15.8945 0.586945 14.6205 0.586945C12.2444 0.586945 10.3031 2.49811 10.3031 4.85719C10.3031 5.19563 10.3435 5.52411 10.4143 5.83268C6.8148 5.65351 3.60962 3.95138 1.4762 1.37331C1.1021 2.00041 0.889767 2.737 0.889767 3.51341C0.889767 4.99655 1.64809 6.31047 2.82096 7.05702C2.10308 7.05702 1.43576 6.85794 0.849323 6.55932V6.58918C0.849323 8.65961 2.34575 10.3916 4.3275 10.7798C3.69124 10.9512 3.02328 10.9751 2.37608 10.8495C2.6507 11.698 3.18854 12.4405 3.91398 12.9726C4.63942 13.5047 5.51599 13.7995 6.42047 13.8158C4.88727 15.0107 2.98678 15.6566 1.03132 15.6473C0.687547 15.6473 0.343773 15.6274 0 15.5876C1.92109 16.802 4.20617 17.5087 6.65303 17.5087C14.6205 17.5087 18.9985 10.9988 18.9985 5.35489C18.9985 5.16577 18.9985 4.9866 18.9884 4.79747C19.8377 4.20023 20.5657 3.44373 21.1522 2.57774Z" fill="#F5F5F5"/>
</svg>
